<svg xmlns="http://www.w3.org/2000/svg" width="1200" height="750" viewBox="0 0 1200 750" fill="none">
  <rect width="1200" height="750" fill="#050505"/>
  <rect x="60" y="50" width="1080" height="100" rx="14" fill="#111113" stroke="#27272a"/>
  <rect x="90" y="80" width="180" height="40" rx="8" fill="#06b6d4" fill-opacity="0.2"/>
  <rect x="300" y="80" width="180" height="40" rx="8" fill="#06b6d4" fill-opacity="0.12"/>
  <rect x="510" y="80" width="180" height="40" rx="8" fill="#06b6d4" fill-opacity="0.12"/>
  <rect x="60" y="180" width="520" height="480" rx="14" fill="#111113" stroke="#27272a"/>
  <rect x="90" y="210" width="200" height="16" rx="3" fill="#71717a"/>
  <rect x="90" y="250" width="460" height="36" rx="6" fill="#27272a"/>
  <rect x="90" y="300" width="460" height="36" rx="6" fill="#27272a" fill-opacity="0.85"/>
  <rect x="90" y="350" width="460" height="36" rx="6" fill="#27272a" fill-opacity="0.7"/>
  <rect x="90" y="400" width="460" height="36" rx="6" fill="#27272a" fill-opacity="0.55"/>
  <rect x="620" y="180" width="520" height="230" rx="14" fill="#111113" stroke="#27272a"/>
  <rect x="650" y="220" width="460" height="150" rx="8" fill="#0c4a6e" fill-opacity="0.25"/>
  <rect x="620" y="440" width="520" height="220" rx="14" fill="#111113" stroke="#27272a"/>
  <rect x="650" y="480" width="140" height="120" rx="8" fill="#27272a"/>
  <rect x="810" y="480" width="140" height="120" rx="8" fill="#27272a" fill-opacity="0.8"/>
  <rect x="970" y="480" width="140" height="120" rx="8" fill="#27272a" fill-opacity="0.6"/>
  <text x="600" y="710" text-anchor="middle" fill="#52525b" font-family="system-ui,sans-serif" font-size="20" font-weight="600">Panel de operaciones � Sistema interno</text>
</svg>
